# xmcd
#
# Track frame offsets: 
#        150
#        22135
#        41807
#        64712
#        81862
#        94565
#        112092
#        128010
#        144652
#        192422
#        213720
#        228735
#        244107
#
# Disc length: 3723 seconds
#
# Revision: 25
# Processed by: cddbd v1.5.2PL0 Copyright (c) Steve Scherf et al.
# Submitted via: ExactAudioCopy v1.3
#
DISCID=c20e890d
DTITLE=Joe Bonamassa - So, It's Like That
DYEAR=2002
DGENRE=Blues
TTITLE0=My Mistake
TTITLE1=Lie #1
TTITLE2=No Slack
TTITLE3=Unbroken
TTITLE4=So, It's Like That
TTITLE5=Waiting for Me
TTITLE6=Never Say Goodbye
TTITLE7=Mountain Time
TTITLE8=Pain and Sorrow
TTITLE9=Takin' the Hit
TTITLE10=Under the Radar
TTITLE11=Sick In Love
TTITLE12=The Hard Way
EXTD=
EXTT0=
EXTT1=
EXTT2=
EXTT3=
EXTT4=
EXTT5=
EXTT6=
EXTT7=
EXTT8=
EXTT9=
EXTT10=
EXTT11=
EXTT12=
PLAYORDER=
